<svg width="40" height="40" viewBox="0 0 40 40" fill="none" xmlns="http://www.w3.org/2000/svg">
<rect width="40" height="40" fill="white"/>
<g clip-path="url(#clip0_1_26)">
<path d="M37.5 40H2.5V-3.54459e-05H37.5V40Z" fill="white"/>
<mask id="mask0_1_26" style="mask-type:luminance" maskUnits="userSpaceOnUse" x="-129" y="-261" width="503" height="392">
<path d="M-128.418 130.231H373.102V-260.462H-128.418V130.231Z" fill="white"/>
</mask>
<g mask="url(#mask0_1_26)">
<path d="M20 20.6286C18.945 20.6286 18.0901 21.4904 18.0901 22.554C18.0901 23.6169 18.945 24.4794 20 24.4794C21.0549 24.4794 21.9098 23.6169 21.9098 22.554C21.9079 21.4911 21.0543 20.6305 20 20.6286Z" fill="#00B3E3"/>
</g>
<mask id="mask1_1_26" style="mask-type:luminance" maskUnits="userSpaceOnUse" x="-129" y="-261" width="503" height="392">
<path d="M-128.418 130.231H373.102V-260.462H-128.418V130.231Z" fill="white"/>
</mask>
<g mask="url(#mask1_1_26)">
<path d="M8.26849 10.7269L10.2562 12.7308C12.7505 10.2162 16.1997 8.66431 19.9997 8.66431C23.8004 8.66431 27.2496 10.2169 29.7439 12.7308L31.7316 10.7269C28.7301 7.70098 24.5799 5.81519 19.9997 5.81519C15.4202 5.81519 11.2694 7.70098 8.26849 10.7269Z" fill="#00B3E3"/>
</g>
<mask id="mask2_1_26" style="mask-type:luminance" maskUnits="userSpaceOnUse" x="-129" y="-261" width="503" height="392">
<path d="M-128.418 130.231H373.102V-260.462H-128.418V130.231Z" fill="white"/>
</mask>
<g mask="url(#mask2_1_26)">
<path d="M11.8541 14.3417L13.8418 16.3456C15.4204 14.7541 17.6032 13.7723 19.9993 13.7723C22.3955 13.7723 24.5795 14.7541 26.1582 16.3456L28.1465 14.3417C26.0613 12.2395 23.1769 10.9225 20.0006 10.9225C16.8237 10.9225 13.9399 12.2389 11.8547 14.3417" fill="#00B3E3"/>
</g>
<mask id="mask3_1_26" style="mask-type:luminance" maskUnits="userSpaceOnUse" x="-129" y="-261" width="503" height="392">
<path d="M-128.418 130.231H373.102V-260.462H-128.418V130.231Z" fill="white"/>
</mask>
<g mask="url(#mask3_1_26)">
<path d="M15.4203 17.9374L17.408 19.9413C18.8404 18.5005 21.1593 18.5005 22.5917 19.9413L24.5794 17.9374C23.3655 16.713 21.7172 16.0267 19.9999 16.0318C18.2268 16.0318 16.6083 16.759 15.4203 17.9374Z" fill="#00B3E3"/>
</g>
<mask id="mask4_1_26" style="mask-type:luminance" maskUnits="userSpaceOnUse" x="-129" y="-261" width="503" height="392">
<path d="M-128.418 130.231H373.102V-260.462H-128.418V130.231Z" fill="white"/>
</mask>
<g mask="url(#mask4_1_26)">
<path d="M27.0545 17.3869C28.1069 18.8406 28.7306 20.6287 28.7306 22.554C28.7306 27.4064 24.8134 31.3555 20.0002 31.3555C15.1864 31.3555 11.2699 27.4064 11.2699 22.554C11.2699 20.6287 11.893 18.8406 12.9454 17.3869L10.9381 15.3633C9.37905 17.3474 8.46339 19.8428 8.46339 22.554C8.46339 28.9583 13.647 34.1842 20.0002 34.1842C26.3528 34.1842 31.5365 28.9583 31.5365 22.554C31.5365 19.8428 30.6012 17.3474 29.0618 15.3633L27.0545 17.3869Z" fill="#002B49"/>
</g>
</g>
<defs>
<clipPath id="clip0_1_26">
<rect width="35" height="40" fill="white" transform="translate(2.5)"/>
</clipPath>
</defs>
</svg>
